<svg width="35" height="26" viewBox="0 0 35 26" fill="none" xmlns="http://www.w3.org/2000/svg">
<path fill-rule="evenodd" clip-rule="evenodd" d="M19.7248 6.60317V2.32765C19.7248 1.61809 20.2261 0.977398 20.9937 0.704823C21.7614 0.433626 22.644 0.583991 23.2325 1.08556L34.3983 10.6299C35.2005 11.3156 35.2005 12.4283 34.3983 13.114L23.2325 22.6584C22.644 23.16 21.7613 23.3103 20.9937 23.0391C20.2261 22.7666 19.7248 22.1259 19.7248 21.4163V17.1409H16.1086C11.7888 17.1409 7.72064 18.8788 5.12844 21.8336L2.21904 25.1495C1.90015 25.512 1.34618 25.6609 0.843266 25.5176C0.340285 25.3729 0 24.971 0 24.5172V23.1122C0 13.995 8.6477 6.60317 19.3138 6.60317H19.7248Z" fill="#F7F1E3"/>
</svg>
